<svg xmlns="http://www.w3.org/2000/svg" width="30" height="31" viewBox="0 0 30 31" fill="none">
  <path d="M17.8594 5.24375C17.8594 3.66875 16.575 2.375 14.9906 2.375C13.4062 2.375 12.1125 3.66875 12.1219 5.24375V12.6219H4.74375C3.16875 12.6219 1.875 13.9062 1.875 15.4906C1.875 17.0656 3.16875 18.3594 4.74375 18.3594H12.1219V25.7281C12.1219 27.3031 13.4062 28.5969 14.9906 28.5969C16.5656 28.5969 17.8594 27.3125 17.8594 25.7281V18.3594H25.2281C26.8031 18.3594 28.0969 17.075 28.0969 15.4906C28.0969 13.9156 26.8125 12.6219 25.2281 12.6219H17.8594V5.24375Z" fill="#457B9D"/>
</svg>